<?xml version="1.0" encoding="utf-8"?>
<!-- Generator: Adobe Illustrator 25.4.1, SVG Export Plug-In . SVG Version: 6.00 Build 0)  -->
<svg version="1.1" id="Capa_1" xmlns="http://www.w3.org/2000/svg" xmlns:xlink="http://www.w3.org/1999/xlink" x="0px" y="0px"
	 viewBox="0 0 368.7 498.9" style="enable-background:new 0 0 368.7 498.9;" xml:space="preserve">
<style type="text/css">
	.st0{fill:#FFFFFF;}
</style>
<g>
	<path class="st0" d="M297.8,391.6c-28.3,14.8-60.1,23.4-92.4,22c-66.5,0.1-133,0-199.5,0.1c-4.4,0-5.7-1.1-5.7-5.7
		c0.1-69.7,0-139.4-0.2-209.1c0.8-12.2,24-14.1,33.5-13.6c46.6,5.9,26.2,61.4,53,86c20,19.4,54.6,19.4,77.6,4.9
		c25-15.5,21.5-45.6,30.8-69.8c9.6-26.2,50.8-31.2,68.8-9.9c15.4,19,7.1,47.1,23.2,66.5c17.5,24.1,52.5,29.6,78,15.8
		c2.8-1.2,3.6-0.3,3.8,2.5C367.1,327,337.5,369.3,297.8,391.6z"/>
	<path class="st0" d="M359.6,429.5c0.4,0.1,0.8,0.2,1.2,0.4c0,19.6,0.1,39.3-0.2,58.9c-0.2,11.6,2.2,10.1-10.3,10.1
		c-114.4,0.1-228.8,0-343.2,0c-6.8,0-6.9,0-6.9-7.1c0-20.6,0-41.3,0-61.9l0,0C119.9,429.1,239.8,430.3,359.6,429.5z"/>
	<path class="st0" d="M8.6,0.6c-7.8,0-7.8,0.1-7.8,7.9c0,52.3,0,104.6-0.1,156.9c0,7.2,1.2,8.4,7.9,6c25.6-9,56.9-2,70,23.4
		c6.3,11.5,6.8,24.1,8.4,36.6c1.4,35.7,47.4,50.8,72,25.5c16.6-18.9,9.4-47.1,24.9-67.3c19.8-29.8,68.1-33.3,92-7
		c12.2,12.8,16.3,28.9,17.5,45.8c3.4,37.4,40.7,48,71,32c5.5-3.6-0.6-13.6-1.9-18.7c-6.9-18.1-17.9-33.5-32.8-46
		c-3.6-3-3.6-5.1-0.5-8.5c50.3-56.6,14.3-145.8-50.6-173.1c-60.9-18.8-172.2-13.5-240-13"/>
</g>
</svg>
