<?xml version="1.0" encoding="utf-8"?>
<!-- Generator: Adobe Illustrator 25.4.1, SVG Export Plug-In . SVG Version: 6.00 Build 0)  -->
<svg version="1.1" id="Capa_1" xmlns="http://www.w3.org/2000/svg" xmlns:xlink="http://www.w3.org/1999/xlink" x="0px" y="0px"
	 viewBox="0 0 500 500" style="enable-background:new 0 0 500 500;" xml:space="preserve">
<g>
	<path d="M342.3,365.4c-2.9,0.2-5,2.3-7.4,3.5c-13.2,6.8-27.3,10.6-41.9,13c-8.6,1.4-17.2,1.4-25.9,1.4c-54.1,0-108.2,0-162.3,0.1
		c-3.6,0-4.7-0.9-4.7-4.6c0.1-56.7,0-113.4-0.2-170.2c0-4.1,2.5-5.7,5.3-7c7-3.1,14.2-4.9,22-4.1c10.9,1.1,18.2,7,23.6,16.3
		c4.2,7.2,4.8,15.2,5.9,22.9c1.8,11.6,5.2,22.4,13.6,30.7c7.2,7.1,16.2,10.9,26.4,11.8c13.1,1.1,25.6-0.4,36.7-7.8
		c12.4-8.3,17.3-20.8,19.5-34.8c1.2-7.5,2.5-14.9,5.5-21.9c5.6-13,17.9-19.8,33.1-18.7c9,0.7,17.1,3.8,22.9,10.7
		c5,6.1,7.3,13.6,8.2,21.6c1.3,11.5,3.5,22.8,10.7,32.5c12.1,16.4,36.9,24,55.8,15.8c2.5-1.1,5.2-1.9,7.7-3c2.2-1,2.9-0.2,3.1,2
		c0.2,3.3-1.1,6.6-0.2,9.9c-0.1,0.3-0.1,0.6-0.2,0.9c-0.2,0.5-0.6,0.9-0.7,1.5c-1.9,10.2-5.2,19.8-9.9,29.1
		c-2.3,4.5-5.7,8.4-7.3,13.2c-2.6,2.4-5,5-6.4,8.4C365.7,349.1,354.8,358.2,342.3,365.4z"/>
	<path d="M392.6,396.2c0.3,0.1,0.7,0.2,1,0.3c0,16,0.1,31.9-0.2,47.9c-0.1,9.4,1.8,8.2-8.4,8.2c-93.1,0-186.1,0-279.2,0
		c-5.6,0-5.6,0-5.6-5.7c0-16.8,0-33.6,0-50.4c0,0,0,0,0,0c0.8-0.1,1.6-0.3,2.4-0.4c0.6,0,1.2,0,1.7,0c1.9,0.1,3.8,0.2,5.8,0.2
		c89.2,0,178.4,0,267.7,0C382.7,396.4,387.6,396.3,392.6,396.2z"/>
	<path d="M196,47.5c29.6,0,59.2-0.4,88.8,0.2c14.5,0.3,28.3,4.3,41.6,10.6c14.4,6.8,26.8,16,37.1,28c7.6,8.8,13.8,18.6,17.7,29.5
		c6.1,16.7,7.7,34.1,3,51.4c-3.2,11.7-8.5,22.7-16.7,31.9c-2.5,2.8-2.5,4.5,0.4,7c12.1,10.1,21.1,22.7,26.7,37.4
		c1.3,3.4,2.6,6.9,3.1,10.6c0.3,1.9,0.4,4.1-1.6,4.6c-7,1.9-13.3,5.6-20.8,6.2c-19.5,1.6-35.6-13.3-37-32.3
		c-1-13.8-4.3-26.9-14.2-37.3c-7-7.3-15.3-12.3-25.5-13.6c-8.5-1.1-17-1.1-25.2,1.6c-9.9,3.3-18.1,8.6-24.1,17.6
		c-6.8,10.2-9.2,21.5-11,33.1c-1.3,7.9-3.5,15.7-9.2,21.6c-8.9,9.2-20.1,11.2-32.2,9.5c-16.1-2.3-24.6-15.8-26.3-30.2
		c-1.2-10.2-1.7-20.5-6.8-29.8c-7-12.8-17.9-19.9-32.1-21.6c-8.3-1-16.7-0.5-24.8,2.5c-5.5,2-6.4,1-6.4-4.8c0-42.5,0-85.1,0.1-127.6
		c0-6.4,0-6.4,6.4-6.4c29.7,0,59.5,0,89.2,0C196,47.4,196,47.4,196,47.5z"/>
</g>
</svg>
