<?xml version="1.0" encoding="utf-8"?>
<!-- Generator: Adobe Illustrator 25.4.1, SVG Export Plug-In . SVG Version: 6.00 Build 0)  -->
<svg version="1.1" id="Capa_1" xmlns="http://www.w3.org/2000/svg" xmlns:xlink="http://www.w3.org/1999/xlink" x="0px" y="0px"
	 viewBox="0 0 120 100" style="enable-background:new 0 0 120 100;" xml:space="preserve">
<style type="text/css">
	.st0{stroke:#000000;stroke-width:5;stroke-miterlimit:10;}
	.st1{stroke:#000000;stroke-width:12.5;stroke-linecap:round;stroke-linejoin:round;stroke-miterlimit:10;}
</style>
<g>
	<g>
		<path class="st0" d="M87.6,60h-39c-1.9,0-3.5-1.1-4.1-2.8L32.4,25.6c-0.2-0.5-0.3-1-0.3-1.5c0-0.9,0.2-1.8,0.8-2.5
			c0.8-1.2,2.2-1.9,3.6-1.9h63.1c0.3,0,0.6,0,0.9,0.1c0.5,0.1,1,0.2,1.5,0.6c0.6,0.3,1,0.8,1.4,1.3c0.3,0.5,0.6,1.1,0.7,1.8
			c0.1,0.5,0.1,1,0,1.5c-0.1,0.3-0.2,0.6-0.2,0.9L91.7,57.2C91,58.9,89.4,60,87.6,60z M51.6,51.2h32.8l8.9-22.8H42.9L51.6,51.2z"/>
		<path d="M51.9,80.2L51.9,80.2c-3.5,0-6.1-2.8-6.1-6.1v-4.2c0-3.5,2.8-6.1,6.1-6.1l0,0c3.5,0,6.1,2.8,6.1,6.1v4.2
			C58.1,77.4,55.4,80.2,51.9,80.2z"/>
		<path d="M84.2,80.2L84.2,80.2c-3.5,0-6.1-2.8-6.1-6.1v-4.2c0-3.5,2.8-6.1,6.1-6.1l0,0c3.5,0,6.1,2.8,6.1,6.1v4.2
			C90.4,77.4,87.6,80.2,84.2,80.2z"/>
	</g>
	<path class="st1" d="M43.4,23.5c-7.7,0-15.5,0-23.2,0"/>
</g>
</svg>
