<?xml version="1.0" encoding="utf-8"?>
<!-- Generator: Adobe Illustrator 25.4.1, SVG Export Plug-In . SVG Version: 6.00 Build 0)  -->
<svg version="1.1" id="Capa_1" xmlns="http://www.w3.org/2000/svg" xmlns:xlink="http://www.w3.org/1999/xlink" x="0px" y="0px"
	 viewBox="0 0 175.2 175.6" style="enable-background:new 0 0 175.2 175.6;" xml:space="preserve">
<style type="text/css">
	.st0{fill:#FFFFFF;}
	.st1{fill:#FFFFFF;stroke:#000000;stroke-width:7;stroke-miterlimit:10;}
</style>
<path d="M13,161.2l10.4-38.1c-6.4-11.2-9.8-23.9-9.8-36.8c0-40.6,33-73.6,73.6-73.6c19.7,0,38.2,7.7,52,21.6s21.5,32.4,21.5,52
	c0,40.6-33,73.6-73.6,73.6l0,0c-12.3,0-24.4-3.1-35.2-9L13,161.2z"/>
<path class="st0" d="M87.2,25.2C53.5,25.2,26,52.7,26,86.4c0,11.5,3.2,22.8,9.3,32.5l1.5,2.3l-6.2,22.6l23.1-6.1L56,139
	c9.4,5.6,20.1,8.5,31.1,8.5l0,0c33.7,0,61.1-27.4,61.2-61.1c0.1-16.2-6.4-31.8-17.9-43.3C119,31.6,103.4,25.2,87.2,25.2L87.2,25.2z"
	/>
<g>
	<circle class="st1" cx="65.9" cy="107" r="3.3"/>
	<circle class="st1" cx="87.6" cy="107" r="3.3"/>
	<circle class="st1" cx="109.4" cy="107" r="3.3"/>
</g>
</svg>
