<?xml version="1.0" encoding="utf-8"?>
<!-- Generator: Adobe Illustrator 25.4.1, SVG Export Plug-In . SVG Version: 6.00 Build 0)  -->
<svg version="1.1" id="Capa_1" xmlns="http://www.w3.org/2000/svg" xmlns:xlink="http://www.w3.org/1999/xlink" x="0px" y="0px"
	 viewBox="0 0 256 256" style="enable-background:new 0 0 256 256;" xml:space="preserve">
<style type="text/css">
	.st0{fill-rule:evenodd;clip-rule:evenodd;}
</style>
<path class="st0" d="M210.5,10h-165C25.9,10,10,25.9,10,45.5v165c0,19.6,15.9,35.5,35.5,35.5h165c19.6,0,35.5-15.9,35.5-35.5v-165
	C245.9,25.9,230.1,10,210.5,10z M170.9,220.2h-38.1v-92.9h-19v-32h19c-0.6-32.2-1.6-60.6,41.3-60.9c0,0,25.4,0,25.4,0v32
	c-32.5-0.2-28.4-1.7-28.6,28.8h28.8l-3.4,32h-25.4L170.9,220.2L170.9,220.2z"/>
</svg>
