<?xml version="1.0" encoding="utf-8"?>
<!-- Generator: Adobe Illustrator 25.4.1, SVG Export Plug-In . SVG Version: 6.00 Build 0)  -->
<svg version="1.1" id="Capa_1" xmlns="http://www.w3.org/2000/svg" xmlns:xlink="http://www.w3.org/1999/xlink" x="0px" y="0px"
	 viewBox="0 0 99.8 100" style="enable-background:new 0 0 99.8 100;" xml:space="preserve">
<style type="text/css">
	.st0{stroke:#FFFFFF;stroke-miterlimit:10;}
</style>
<path class="st0" d="M27.6,83.7l1.5,0.9c6.3,3.8,13.5,5.7,20.8,5.7l0,0c22.6,0,40.9-18.4,41-40.9c0-10.9-4.2-21.2-12-29
	C71.3,12.7,60.8,8.3,50,8.4C27.4,8.4,9,26.7,9,49.3c0,7.7,2.1,15.3,6.2,21.8l1,1.5L12,87.8L27.6,83.7z M0.3,99.6l7-25.5
	C3,66.6,0.7,58.2,0.7,49.5C0.7,22.2,22.8,0.1,50,0.1c13.2,0,25.6,5.2,34.8,14.5s14.4,21.7,14.4,34.8c0,27.2-22.1,49.3-49.3,49.3l0,0
	c-8.2,0-16.3-2.1-23.6-6L0.3,99.6z M37.2,28.3c-0.9-2.1-1.9-2.1-2.7-2.1h-2.3c-0.8,0-2.1,0.3-3.3,1.5s-4.4,4.2-4.4,10.2
	s4.4,11.9,5,12.7c0.6,0.8,8.5,13.7,21,18.6c10.4,4.1,12.5,3.3,14.8,3.1c2.3-0.2,7.3-2.9,8.3-5.8s1-5.4,0.7-5.8
	c-0.3-0.5-1.1-0.8-2.3-1.4c-1.2-0.6-7.3-3.6-8.4-4s-1.9-0.6-2.7,0.6s-3.1,4-3.9,4.8s-1.4,0.9-2.7,0.3s-5.2-1.9-9.9-6.1
	c-3.7-3.3-6.2-7.3-6.8-8.5s-0.1-1.9,0.5-2.5c0.5-0.5,1.2-1.4,1.9-2.1s0.8-1.2,1.2-2.1s0.2-1.5-0.1-2.1
	C40.6,36.9,38.2,30.7,37.2,28.3"/>
</svg>
